<svg width="32" height="32" viewBox="0 0 32 32" fill="none" xmlns="http://www.w3.org/2000/svg">
<path fill-rule="evenodd" clip-rule="evenodd" d="M26.148 0.438498C25.3294 1.60315 23.669 3.60506 22.5233 4.80883C21.2236 6.17436 19.7728 7.48887 18.4607 8.48968L17.7243 9.05134L17.9201 9.35201C19.6312 11.9798 20.1969 14.5357 19.7809 17.7597C19.7065 18.3361 19.5521 19.2186 19.4377 19.7208C19.3233 20.223 19.2404 20.6449 19.2532 20.6585C19.2996 20.7071 19.6931 20.0635 19.897 19.6055C20.5149 18.2177 20.8387 16.5004 20.8336 14.6369L20.8304 13.441L22.9961 11.1516C25.3458 8.66788 26.3852 7.48953 26.9173 6.70638L27.2591 6.20335L27.2206 4.98171C27.1994 4.30981 27.1329 3.37202 27.0727 2.89773C26.9554 1.97352 26.6634 0.50461 26.5347 0.191296L26.4562 0L26.148 0.438498ZM5.02118 1.90612C3.86396 2.07945 2.67908 2.72102 1.76306 3.67031C0.763141 4.70654 0.196037 5.97345 0.0498274 7.49749C0.00654638 7.94908 -0.00988928 10.8077 0.00586169 15.1514C0.0277076 21.1718 0.0453073 22.1464 0.139539 22.5535C0.662814 24.8145 2.09533 26.538 3.85697 27.0262C4.08296 27.0889 4.43737 27.1604 4.64453 27.1852C4.85168 27.21 5.10546 27.2472 5.20855 27.2679L5.39599 27.3056L5.414 29.6528L5.43206 32L7.64247 29.692L9.85284 27.3841L10.553 27.3718C11.6689 27.352 12.5621 27.0807 13.6385 26.4344C15.0278 25.6003 16.422 24.1707 17.3932 22.5843C17.632 22.1942 18.219 20.8948 18.398 20.36C18.774 19.2365 19.1084 17.1372 18.906 17.1707C18.8777 17.1754 15.4417 17.1754 11.2702 17.1707L3.68577 17.1622V13.7128V10.2635H10.3971C14.0883 10.2635 17.1083 10.2442 17.1083 10.2206C17.1083 10.197 16.9312 9.89792 16.7146 9.55587C16.4981 9.21391 16.3113 8.91199 16.2995 8.88505C16.2878 8.85805 16.935 8.24763 17.7376 7.52846C18.5403 6.80933 19.903 5.58828 20.766 4.815L22.3349 3.40902L22.0672 3.1657C21.6783 2.81222 20.7192 2.28317 20.0873 2.07348L19.5394 1.89167L12.383 1.88355C8.44699 1.87903 5.13419 1.88923 5.02118 1.90612ZM28.9645 5.38363C27.625 7.59728 26.1647 9.41375 23.5013 12.179L21.8294 13.915L21.7627 14.7301C21.6521 16.0832 21.5022 17.1702 21.3252 17.9023C20.9223 19.5692 20.1066 21.1709 18.7791 22.9016C17.9842 23.9381 17.95 24.0547 18.6203 23.4425C19.5771 22.5688 20.65 21.235 21.353 20.0456C22.1256 18.7385 22.7893 16.9959 22.947 15.8603L23.0284 15.2742L23.4069 14.9803C23.7438 14.7187 25.5852 13.151 25.7788 12.9609C25.8205 12.92 26.0825 12.6765 26.3609 12.42C27.9522 10.9538 29.4262 9.3237 29.4385 9.01672C29.4632 8.39656 29.4603 4.65899 29.4352 4.6604C29.4163 4.66147 29.2045 4.98694 28.9645 5.38363ZM31.6266 7.90637C31.148 8.58927 29.7574 10.3735 29.1456 11.0899C27.7971 12.6688 25.6302 14.7691 24.1522 15.9302C23.7776 16.2244 23.763 16.2487 23.6803 16.7159C23.186 19.5116 20.8913 22.4978 17.3386 24.9684C16.8061 25.3388 16.3509 25.6418 16.327 25.6418C16.3032 25.6418 16.1687 25.72 16.0283 25.8156C15.8878 25.9111 15.3877 26.2016 14.9169 26.4612C13.9653 26.9858 13.9831 27.0235 15.0881 26.823C18.2616 26.2474 21.2519 24.8478 23.8881 22.7042C25.0791 21.7357 26.8324 19.8037 27.6355 18.5747C27.7945 18.3313 27.9544 18.0955 27.9907 18.0504C28.2123 17.7758 29.4126 15.5756 29.8866 14.5752C30.8692 12.5013 31.381 10.9636 31.7524 8.97C32.0097 7.58841 32.0287 7.46018 31.9766 7.46378C31.9536 7.46536 31.7961 7.66458 31.6266 7.90637ZM5.84159 11.93C5.82057 11.9874 5.81228 13.0023 5.82318 14.1851L5.84298 16.3358L6.33947 16.3569L6.83597 16.378V15.5556V14.7332L7.43519 14.7077C8.21487 14.6745 8.60875 14.4857 8.86858 14.0205C9.19359 13.4386 9.09999 12.7191 8.63973 12.2622C8.33004 11.9548 8.10084 11.9002 6.95711 11.8618C6.05558 11.8315 5.8736 11.8427 5.84159 11.93ZM9.98615 14.1176V16.3907L11.0769 16.3577C12.1346 16.3257 12.1811 16.3177 12.6104 16.096C13.4121 15.6818 13.7527 15.0783 13.7527 14.0719C13.7527 13.474 13.6093 13.0242 13.2962 12.6404C12.8196 12.0562 12.1483 11.8459 10.7566 11.845L9.98615 11.8444V14.1176ZM14.7571 11.8924C14.732 11.9187 14.7114 12.9388 14.7114 14.1591V16.378L15.2079 16.3569L15.7044 16.3358L15.7236 15.4195L15.7428 14.5033H16.3913H17.0399V14.1081V13.7128H16.3893H15.7387V13.2098V12.7068H16.5947H17.4507V12.2756V11.8444H16.1268C15.3985 11.8444 14.7822 11.866 14.7571 11.8924ZM6.83597 13.3095V13.9284H7.16818C7.35088 13.9284 7.59316 13.8945 7.70659 13.853C8.05575 13.7253 8.17994 13.2262 7.93991 12.9152C7.83212 12.7755 7.73212 12.7437 7.32357 12.7195L6.83597 12.6905V13.3095ZM10.9449 14.1081V15.4375H11.3392C12.2909 15.4375 12.7481 15.006 12.7502 14.1059C12.7522 13.2314 12.2924 12.7786 11.4027 12.7786H10.9449V14.1081Z" fill="#EDB01A"/>
<path fill-rule="evenodd" clip-rule="evenodd" d="M21.8758 13.8816L23.026 15.385L22.9597 15.8619C22.802 16.9976 22.1384 18.7402 21.3657 20.0473C20.6628 21.2366 19.5898 22.5705 18.6331 23.4442C17.9627 24.0564 17.9969 23.9398 18.7918 22.9033C20.1193 21.1725 20.935 19.5708 21.3379 17.9039C21.5149 17.1719 21.6648 16.0849 21.7754 14.7318L21.8421 13.9166L21.8758 13.8816ZM18.0178 8.83887L21.2284 13.0354L20.8431 13.4427L20.8463 14.6386C20.8514 16.5021 20.5276 18.2193 19.9097 19.6071C19.7058 20.0651 19.3123 20.7088 19.2659 20.6602C19.2531 20.6466 19.336 20.2246 19.4504 19.7225C19.5648 19.2203 19.7192 18.3378 19.7936 17.7613C20.2096 14.5374 19.6439 11.9815 17.9328 9.35368L17.7371 9.05301L18.0178 8.83887Z" fill="#EDB01A"/>
</svg>
